<svg width="593" height="593" viewBox="0 0 593 593" fill="none" xmlns="http://www.w3.org/2000/svg">
<g id="favicon">
<rect width="593" height="593" rx="118" fill="white"/>
<g id="NR1">
<path d="M94.2075 192.924H152.125L201.023 368.085L183.409 378.372L222.725 192.924H264.436L221.597 395H168.049L115.204 210.679L134.228 201.942L93.2211 395H51.3685L94.2075 192.924ZM304.88 192.924H388.303C400.892 192.924 411.696 195.272 420.714 199.97C429.827 204.667 436.732 211.008 441.429 218.993C446.127 226.979 448.475 235.857 448.475 245.627C448.475 258.31 445.61 268.972 439.879 277.615C434.149 286.258 426.116 292.834 415.782 297.344C405.448 301.853 393.235 304.437 379.144 305.094L380.976 301.43C391.497 302.182 399.906 304.531 406.2 308.476C412.588 312.328 417.238 317.777 420.151 324.823C423.063 331.869 424.613 340.794 424.801 351.597L425.506 395H380.553L380.271 357.234C380.177 348.685 379.285 341.921 377.594 336.942C375.996 331.963 373.084 328.299 368.857 325.95C364.723 323.602 358.804 322.427 351.101 322.427H309.812L317.422 286.634H362.515C370.876 286.634 378.11 285.46 384.217 283.111C390.323 280.669 395.02 277.005 398.309 272.12C401.691 267.234 403.382 261.175 403.382 253.941C403.382 246.519 400.845 240.554 395.772 236.045C390.699 231.441 383.371 229.14 373.789 229.14H326.018L342.364 227.589L306.712 395H261.759L304.88 192.924ZM511.184 239.427L518.089 243.231H473.559L477.786 223.221C491.22 222.939 501.836 220.168 509.634 214.907C517.431 209.552 522.316 202.224 524.289 192.924H547.118L504.561 395H478.491L511.184 239.427Z" fill="#2E7CEF"/>
</g>
</g>
</svg>
